<svg xmlns="http://www.w3.org/2000/svg" viewBox="0 0 64 64">
  <rect width="64" height="64" rx="14" fill="#E60012"/>
  <g fill="#FFFFFF">
    <path d="M12 20 C18 16 28 14 39 16 C48 18 57 23 60 26 C57 27 50 26 44 25 C36 24 28 24 20 27 C15 29 13 31 12 20 Z"/>
    <path d="M12 28 C19 25 29 24 40 26 C48 27 55 31 58 34 C55 35 48 34 42 33 C34 31 26 32 18 35 C14 37 13 38 12 28 Z"/>
    <path d="M12 36 C19 33 30 33 39 35 C46 36 52 39 54 42 C51 43 45 42 39 40 C31 39 23 41 16 44 C13 46 12 45 12 36 Z"/>
    <path d="M12 45 C18 43 26 42 34 43 C39 45 44 47 46 50 C42 50 36 49 30 48 C23 48 17 50 12 53 L12 45 Z"/>
  </g>
</svg>
